<svg width="32" height="30" fill="none" xmlns="http://www.w3.org/2000/svg">
  <path fill-rule="evenodd" clip-rule="evenodd" d="M2.335 2.673C3.831 1.032 5.86.109 7.975.109c2.114 0 4.143.923 5.638 2.564l2.337 2.563 2.337-2.563A8.002 8.002 0 0 1 20.876.71c.973-.459 2.02-.7 3.079-.71a7.36 7.36 0 0 1 3.09.651c.98.44 1.87 1.09 2.619 1.912a8.862 8.862 0 0 1 1.742 2.876A9.51 9.51 0 0 1 32 8.83a9.492 9.492 0 0 1-.648 3.38 8.822 8.822 0 0 1-1.787 2.842L15.95 30 2.335 15.053C.84 13.41 0 11.184 0 8.863c0-2.322.84-4.548 2.335-6.19Z" fill="#FFA69D"/>
</svg>
