<svg width="644" height="500" fill="none" xmlns="http://www.w3.org/2000/svg">
  <path d="m346.436 48.836-.043 32.567 62.607.08V63.606a60.593 60.593 0 0 0-4.733-23.549 61.45 61.45 0 0 0-13.544-19.976A62.678 62.678 0 0 0 370.431 6.72a63.558 63.558 0 0 0-23.952-4.713v.688L327 48.788l19.436.048ZM518.391 129.717c-5.523 0-10-4.477-10-10s4.477-10 10-10c5.522 0 10 4.477 10 10s-4.478 10-10 10Z" fill="#FFA69D"/>
  <path d="m340.353 359.293-90.209 18.095h135.587s-124.106-152.74-87.476-142.628c26.199 7.232 81.462 13.374 110.843 16.285l129.442 228.79-53.579 19.159h104.971c3.636 0-140.382-273.015-154.679-300.131l-1.137-2.128-61.78-10.644 8.365 14.784c-47.947-13.837-220.876-60.1-176.482 5.173 51.392 75.545 136.134 153.245 136.134 153.245Z" fill="#0E6CA9"/>
  <path d="M274.82 109.658S285.155 238.935 308 258.539l-40.251 20.133s-34.812-101.196-33.724-166.11l40.795-2.904Z" fill="#0C0A0A" stroke="#fff" stroke-width="2" stroke-miterlimit="10"/>
  <path d="m332 60.865-1.456 12.702L280.31 84.18V105.8c-.006 4.223-2.317 8.273-6.425 11.26-4.109 2.986-9.679 4.666-15.489 4.67h-55.185c-5.81-.004-11.381-1.684-15.489-4.67-4.109-2.987-6.419-7.037-6.425-11.26v-.704l-21.113 4.461L158 0l174 60.865ZM188.577 105.8c.006 2.82 1.55 5.523 4.293 7.517 2.743 1.994 6.462 3.117 10.341 3.121h55.185c3.879-.004 7.598-1.127 10.341-3.121 2.743-1.994 4.287-4.697 4.292-7.517V85.74l-84.452 17.842v2.218Z" fill="#0E6CA9"/>
  <path d="M365 28.169c-8.284 0-15-2.027-15-4.528 0-2.5 6.716-4.527 15-4.527 8.284 0 15 2.027 15 4.527s-6.716 4.528-15 4.528Z" fill="#fff"/>
  <path d="M362.431 29.932c-2.694-.676-4.324-3.312-3.643-5.888.682-2.576 3.418-4.116 6.111-3.44 2.694.676 4.324 3.312 3.643 5.888-.682 2.575-3.418 4.116-6.111 3.44Z" fill="#0C0A0A"/>
  <path d="M366.157 42.589c-7.916-.011-14.33-2.466-14.326-5.483.005-3.017 6.425-5.455 14.341-5.444 7.916.01 14.33 2.466 14.326 5.483-.005 3.017-6.425 5.454-14.341 5.444Z" fill="#FA8E5D"/>
  <path d="M273.351 103.934s9.444 46.474-7.331 40.386c-11.091-4.033-7.447-40.698-7.447-40.698l14.778.312Z" fill="#0C0A0A" stroke="#fff" stroke-width="2" stroke-miterlimit="10"/>
  <path d="M258.328 103.931s5.751 40.636-4.079 39.923c-20.351-1.475-12.929-40.232-12.929-40.232l17.008.309Z" fill="#0C0A0A" stroke="#fff" stroke-width="2" stroke-miterlimit="10"/>
  <path d="M242.16 102.937s6.838 38.914-5.85 38.914c-12.144 0-8.923-39.236-8.923-39.236l14.773.322Z" fill="#0C0A0A" stroke="#fff" stroke-width="2" stroke-miterlimit="10"/>
  <path d="m239.899 129.778-9.899.306s3.411 11.593 7.115 8.089c3.703-3.505 2.784-8.395 2.784-8.395ZM254.998 132.797l-7.998.24s2.959 8.686 5.561 6.427c2.602-2.258 2.437-6.667 2.437-6.667ZM262 132.797h12s-1.636 10.088-6.545 8.967c-4.91-1.121-5.455-8.967-5.455-8.967Z" stroke="#fff" stroke-width="2" stroke-miterlimit="10"/>
  <path d="M347.039 80.482 293.891 206.96 265 286.505l8.029 1.713c15.242 3.252 31.172 1.25 45.064-5.664s24.882-18.309 31.089-32.237l38.468-86.312L410 80.748l-62.961-.266Z" fill="#488733"/>
  <path d="M346.042 80h30.849L338 96l8.042-16Z" fill="#0E6CA9"/>
  <path d="m437 248.677-41.989-48.334s-11.316 23.906-23.449-3.289c-14.723-32.996-40.353-92.341-59.439-87.066-19.086 5.274-27.266 11.213-20.177 12.533a97.614 97.614 0 0 0 15.269 1.319s-23.994 5.274-16.905 8.574c7.089 3.3 18.541 0 18.541 0s-22.904 5.934-17.996 9.234c4.908 3.299 18.541 1.974 18.541 1.974s60.53 197.225 115.607 116.763L437 248.677Z" fill="#0C0A0A"/>
  <path d="M408.652 80.482s92.704 110.369 26.526 199.196L369 187.128l39.652-106.646Z" fill="#488733"/>
  <path d="M374.5 80 419 96l-8.922-16H374.5Z" fill="#0E6CA9"/>
  <path d="M165.006 439.96c.001 7.669-2.137 15.195-6.187 21.781-4.05 6.587-9.862 11.987-16.819 15.63V500h281V377.264H142v25.286c6.957 3.642 12.769 9.043 16.819 15.629 4.05 6.586 6.188 14.112 6.187 21.781Z" fill="#488733"/>
  <path d="M422 377h47v123h-47V377Z" fill="#FFBD45"/>
  <path d="M422 378v28.349L469 434v-23.407L422 378ZM422 411v9.318L469 447v-9.318L422 411Z" fill="#0C0C0C"/>
  <path d="M421 447v34.252L469 496v-20.136L421 447ZM157.5 110.664c-10.217 0-18.5-24.773-18.5-55.332S147.283 0 157.5 0 176 24.773 176 55.332s-8.283 55.332-18.5 55.332Z" fill="#0C0A0A"/>
  <path d="M579.108 364.858c-13.255 0-24-10.745-24-24 0-13.254 10.745-24 24-24 13.254 0 24 10.746 24 24 0 13.255-10.746 24-24 24ZM42 451c-7.18 0-13-5.82-13-13s5.82-13 13-13 13 5.82 13 13-5.82 13-13 13ZM200 324c-5.523 0-10-4.477-10-10s4.477-10 10-10 10 4.477 10 10-4.477 10-10 10Z" fill="#FFA69D"/>
  <path d="m25 0 1.204 7.312c1.126 6.832 1.688 10.249 3.962 12.522 2.273 2.274 5.69 2.836 12.522 3.962L50 25l-7.312 1.204c-6.832 1.126-10.249 1.688-12.522 3.962-2.274 2.273-2.836 5.69-3.962 12.522L25 50l-1.204-7.312c-1.126-6.832-1.688-10.249-3.962-12.522-2.273-2.274-5.69-2.836-12.522-3.962L0 25l7.312-1.204c6.832-1.126 10.249-1.688 12.522-3.962 2.274-2.273 2.836-5.69 3.962-12.522L25 0ZM600 198l1.346 8.171c1.125 6.832 1.688 10.248 3.961 12.522 2.274 2.273 5.69 2.836 12.522 3.961L626 224l-8.171 1.346c-6.832 1.125-10.248 1.688-12.522 3.961-2.273 2.274-2.836 5.69-3.961 12.522L600 250l-1.346-8.171c-1.125-6.832-1.688-10.248-3.961-12.522-2.274-2.273-5.69-2.836-12.522-3.961L574 224l8.171-1.346c6.832-1.125 10.248-1.688 12.522-3.961 2.273-2.274 2.836-5.69 3.961-12.522L600 198ZM95.5 190.236l3.396 20.62c1.126 6.833 1.689 10.249 3.962 12.522 2.273 2.274 5.69 2.836 12.522 3.962l20.62 3.396-20.62 3.397c-6.832 1.125-10.249 1.688-12.522 3.961-2.273 2.274-2.836 5.69-3.962 12.522l-3.396 20.62-3.396-20.62c-1.126-6.832-1.689-10.248-3.962-12.522-2.273-2.273-5.69-2.836-12.522-3.961L55 230.736l20.62-3.396c6.832-1.126 10.249-1.688 12.522-3.962 2.273-2.273 2.836-5.689 3.962-12.522l3.396-20.62Z" fill="#FFBD45"/>
  <path d="M631 29c-7.18 0-13-5.82-13-13s5.82-13 13-13 13 5.82 13 13-5.82 13-13 13Z" fill="#FFA69D"/>
</svg>
