<svg width="30" height="32" fill="none" xmlns="http://www.w3.org/2000/svg">
  <path d="M15 0c-2.842 0-5.567 1.054-7.576 2.929C5.414 4.804 4.286 7.348 4.286 10v4a4.446 4.446 0 0 0-3.03 1.172C.451 15.922 0 16.939 0 18v10c0 1.06.452 2.078 1.255 2.828A4.446 4.446 0 0 0 4.285 32h21.43a4.446 4.446 0 0 0 3.03-1.172C29.548 30.078 30 29.061 30 28V18c0-1.06-.451-2.078-1.255-2.828A4.446 4.446 0 0 0 25.715 14H8.57v-4c0-1.46.57-2.871 1.605-3.968 1.034-1.096 2.461-1.802 4.014-1.986a6.79 6.79 0 0 1 4.419.987c1.295.82 2.225 2.053 2.616 3.467.142.514.497.954.987 1.223a2.291 2.291 0 0 0 1.624.214c.273-.066.529-.18.754-.339.224-.158.414-.356.557-.582.143-.226.236-.477.276-.737a1.87 1.87 0 0 0-.047-.779c-.595-2.146-1.937-4.048-3.815-5.405C19.683.737 17.375 0 15 0Z" fill="#488733"/>
</svg>
