<svg width="40" height="40" fill="none" xmlns="http://www.w3.org/2000/svg">
  <path d="M20 10.625C20 15.803 15.888 20 10.816 20H1.633v-9.375c0-5.178 4.111-9.375 9.183-9.375S20 5.447 20 10.625ZM20 29.375C20 24.197 24.112 20 29.184 20h9.183v9.375c0 5.178-4.111 9.375-9.183 9.375S20 34.553 20 29.375ZM1.633 29.375c0 5.178 4.111 9.375 9.183 9.375H20v-9.375C20 24.197 15.888 20 10.816 20c-5.072 0-9.183 4.197-9.183 9.375ZM38.367 10.625c0-5.178-4.111-9.375-9.183-9.375H20v9.375C20 15.803 24.112 20 29.184 20c5.072 0 9.183-4.197 9.183-9.375Z" fill="#FFBD45"/>
</svg>
