<svg aria-hidden="true" style="position: absolute; width: 0; height: 0; overflow: hidden;" version="1.1" xmlns="http://www.w3.org/2000/svg" xmlns:xlink="http://www.w3.org/1999/xlink">
<defs>
<symbol id="icon-fire" viewBox="0 0 32 32">
<path fill="#ffbd45" style="fill: var(--color1, #ffbd45)" d="M24.823 9.394c0 2.608-0.882 6.086-5.117 7.477 1.235-2.956 1.412-5.912 0.53-8.694-1.236-3.652-5.295-6.435-8.118-8-0.706-0.521-1.942 0.174-1.765 1.218 0 1.913-0.53 4.695-3.53 7.651-3.881 3.826-5.823 7.825-5.823 11.65 0 5.044 3.53 11.304 10.588 11.304-7.058-6.956-1.764-13.042-1.764-13.042 1.411 10.26 8.823 13.042 12.353 13.042 3 0 8.823-2.087 8.823-11.13 0-5.39-2.294-9.563-4.235-11.998-0.53-0.87-1.765-0.348-1.942 0.522z"></path>
</symbol>
<symbol id="icon-heart" viewBox="0 0 32 32">
<path fill="#ffa69d" style="fill: var(--color2, #ffa69d)" d="M2.335 3.673c1.496-1.641 3.525-2.564 5.64-2.564 2.114 0 4.143 0.923 5.638 2.564l2.337 2.563 2.337-2.563c0.711-0.811 1.571-1.472 2.541-1.942l0.048-0.021c0.973-0.459 2.020-0.7 3.079-0.71 0.019-0 0.041-0 0.063-0 1.097 0 2.138 0.24 3.073 0.67l-0.046-0.019c0.98 0.44 1.87 1.090 2.619 1.912 0.734 0.809 1.325 1.764 1.722 2.815l0.020 0.061c0.376 0.983 0.594 2.121 0.594 3.309 0 0.029-0 0.057-0 0.086l0-0.004c-0.009 1.218-0.246 2.379-0.671 3.444l0.023-0.064c-0.433 1.1-1.038 2.044-1.791 2.847l0.004-0.005-13.615 14.948-13.615-14.947c-1.495-1.643-2.335-3.869-2.335-6.19s0.84-4.548 2.335-6.19z"></path>
</symbol>
<symbol id="icon-lock" viewBox="0 0 32 32">
<path fill="#488733" style="fill: var(--color3, #488733)" d="M16 0c-2.842 0-5.567 1.054-7.576 2.929s-3.138 4.419-3.138 7.071v4c-0.007-0-0.014-0-0.022-0-1.162 0-2.219 0.445-3.011 1.175l0.003-0.003c-0.805 0.75-1.256 1.767-1.256 2.828v10c0 1.060 0.452 2.078 1.255 2.828 0.789 0.727 1.846 1.172 3.008 1.172 0.008 0 0.015-0 0.023-0h21.429c0.007 0 0.014 0 0.022 0 1.162 0 2.219-0.445 3.011-1.175l-0.003 0.003c0.803-0.75 1.255-1.767 1.255-2.828v-10c0-1.060-0.451-2.078-1.255-2.828-0.789-0.727-1.846-1.172-3.008-1.172-0.008 0-0.015 0-0.023 0h-17.144v-4c0-1.46 0.57-2.871 1.605-3.968s2.461-1.802 4.014-1.986c0.244-0.031 0.527-0.049 0.814-0.049 1.336 0 2.582 0.386 3.633 1.052l-0.028-0.016c1.295 0.82 2.225 2.053 2.616 3.467 0.142 0.514 0.497 0.954 0.987 1.223 0.315 0.174 0.692 0.277 1.092 0.277 0.189 0 0.373-0.023 0.548-0.066l-0.016 0.003c0.273-0.066 0.529-0.18 0.754-0.339 0.224-0.158 0.414-0.356 0.557-0.582s0.236-0.477 0.276-0.737c0.013-0.084 0.021-0.181 0.021-0.279 0-0.178-0.025-0.35-0.071-0.513l0.003 0.013c-0.595-2.146-1.937-4.048-3.815-5.405-1.877-1.358-4.185-2.095-6.56-2.095z"></path>
</symbol>
<symbol id="icon-logo" viewBox="0 0 32 32">
<path fill="#ffbd45" style="fill: var(--color1, #ffbd45)" d="M16 8.5c0 4.142-3.29 7.5-7.347 7.5h-7.346v-7.5c0-4.142 3.289-7.5 7.346-7.5s7.347 3.358 7.347 7.5zM16 23.5c0-4.142 3.29-7.5 7.347-7.5h7.346v7.5c0 4.142-3.289 7.5-7.346 7.5s-7.347-3.358-7.347-7.5zM1.306 23.5c0 4.142 3.289 7.5 7.346 7.5h7.347v-7.5c0-4.142-3.29-7.5-7.347-7.5s-7.346 3.358-7.346 7.5zM30.694 8.5c0-4.142-3.289-7.5-7.346-7.5h-7.347v7.5c0 4.142 3.29 7.5 7.347 7.5s7.346-3.358 7.346-7.5z"></path>
</symbol>
<symbol id="icon-star" viewBox="0 0 32 32">
<path fill="#0e6ca9" style="fill: var(--color4, #0e6ca9)" d="M16 0l2.895 9.808c0.449 1.486 1.805 2.549 3.41 2.549 0.017 0 0.035-0 0.052-0l-0.003 0 9.645-0.133-8.034 5.968c-0.875 0.655-1.434 1.689-1.434 2.854 0 0.391 0.063 0.767 0.179 1.118l-0.007-0.025 3.184 9.862-7.692-6.041c-0.598-0.474-1.364-0.76-2.196-0.76s-1.598 0.286-2.204 0.765l0.007-0.006-7.692 6.041 3.186-9.862c0.109-0.326 0.172-0.702 0.172-1.093 0-1.165-0.56-2.199-1.426-2.847l-0.009-0.007-8.034-5.968 9.644 0.133c0.015 0 0.033 0 0.050 0 1.605 0 2.961-1.063 3.404-2.524l0.007-0.025 2.895-9.808z"></path>
</symbol>
</defs>
</svg>
